# xmcd CD database file
#
# Track frame offsets:
#	150
#	25201
#	49992
#	73279
#	92345
#	127071
#	147999
#	173418
#	196730
#	221132
#	257132
#	277000
#	300709
#
# Disc length: 4355 seconds
#
# Revision: 1
# Processed by: cddbd v1.5.2PL0 Copyright (c) Steve Scherf et al.
# Submitted via: CDex 1.70beta2
#
DISCID=c511010d
DTITLE=Bob Szajner - On The Bench In The Zone
DYEAR=2008
DGENRE=Jazz
TTITLE0=Notably So
TTITLE1=Autumn Mist
TTITLE2=At the Cafe
TTITLE3=Nichols for Your Thoughts
TTITLE4=Seems Like Spring
TTITLE5=Theo
TTITLE6=For No Reason
TTITLE7=Ragman
TTITLE8=Nueve Cito
TTITLE9=Debonaire
TTITLE10=Dejection
TTITLE11=Chagrin
TTITLE12=Delicate Balance
EXTD=YEAR: 2008
EXTT0=
EXTT1=
EXTT2=
EXTT3=
EXTT4=
EXTT5=
EXTT6=
EXTT7=
EXTT8=
EXTT9=
EXTT10=
EXTT11=
EXTT12=
PLAYORDER=
